<?xml version="1.0" encoding="utf-8"?>
<!-- Generator: Adobe Adobe Illustrator 24.2.0, SVG Export Plug-In . SVG Version: 6.00 Build 0)  -->
<svg version="1.1" id="Layer_1" xmlns="http://www.w3.org/2000/svg" xmlns:xlink="http://www.w3.org/1999/xlink" x="0px" y="0px"
	 width="592.5px" height="548.91px" viewBox="0 0 592.5 548.91" style="enable-background:new 0 0 592.5 548.91;"
	 xml:space="preserve">
<style type="text/css">
	.st0{fill:#F9B801;}
	.st1{fill:#FA0728;}
</style>
<g>
	<path class="st0" d="M0,437.21h592.4c0,0,4.56,64.94-109.13,94.52c-17.47,4.54-35.3,7.5-53.28,9.12
		c-27.38,2.47-83.53,7.06-123.69,7.06c0,0-143,1.8-215.6-24.6c-2.5-0.9-5.1-1.8-7.7-2.6C68.3,516.01,5.4,493.21,0,437.21z"/>
	<path class="st0" d="M308.1,0.01c0,0-157.7-1.2-229.9,28.7c0,0-78.3,28.7-78.3,81.3h592.5c0,0,2.6-68.9-125.8-96.4
		C466.6,13.61,406.9,0.01,308.1,0.01z"/>
</g>
<g>
	<path class="st1" d="M60.2,257.11c22.5,0,34.8-4.6,34.8-4.6c21.5-7.8,19.1-35.5,19.1-35.5c0-11.6-7.5-19.7-12.6-23.9
		c-2-1.7-2-4.7-0.1-6.4c4.7-4.1,11.4-12,11.4-24c0-34.27-43.59-31.93-52.89-31.93c-4.91,0-28.56,0.09-30.71,16.03
		c0,0-2.3,9.8-2.3,52.6c0,0,0,45.9,7.1,52.3C34,251.61,37.1,257.11,60.2,257.11z M60.2,167.21c0,0-0.2-10.7,9.6-10.7
		c0,0,11.6-0.5,11.6,12.4c0,15.6-12.7,14.5-12.7,14.5s-8.6,1-8.6-10.5v-5.7H60.2z M69.5,228.51c0,0-8.1,1.1-8.1-11v-2.9
		c0,0-0.3-9.8,7.8-9.8c0,0,12.2-0.8,12.2,12.2C81.5,217.11,82.5,228.51,69.5,228.51z"/>
	<path class="st1" d="M206,136.41c0,0,4.7,2,4.7,44c0,0,0.49,46.28-2.49,66.58c-0.07,0.45,0.09,9.62-11.61,9.62
		c0,0-5.02,0.22-9.72-0.26c-3.99-0.41-7.63-2.44-10.18-5.54l0,0c-1.2-1.5-3.4-1.7-4.9-0.6c-8.8,6.3-19.9,5.7-19.9,5.7
		c-31.53,0-29.2-43.7-29.2-43.7c0-45.1,0.8-59.8,0.8-59.8c0-12.1,2.6-15.5,2.6-15.5c2.6-5.3,13.1-4.8,13.1-4.8
		c10.26,0,12.9,2.8,12.9,2.8c3.8,3.5,4.1,8.8,4.5,13.6c0.85,10.15,0.51,27.36,0.3,31.1v0.1c0,0,0,0.1,0,0.4
		c-0.1,2.1-0.2,4.1-0.3,6.2c-0.2,4.6-0.4,11.3-0.4,19.9c0,16.1,9,15.6,9,15.6c2.5,0,4.4-0.6,6-1.5c1-0.6,1.9-1.4,2.5-2.4
		c1.2-1.8,2.5-5.1,2.5-10.4c0,0-1-36.38-1-44.9c0-18.5,5.2-25.7,5.2-25.7c4.3-6,13.9-5.4,13.9-5.4S203.4,131.51,206,136.41z"/>
	<path class="st1" d="M311.9,240.71c0-11-10.4-17.3-10.4-17.3c-7.2-5.1-11.1-10-13.1-13.6c-1.6-2.7-1.1-6.2,1.2-8.3l11.1-10.8
		c8-6.7,7.1-21.9,7.1-21.9c0-39.4-51-36.9-51-36.9c-8.94,0-16.01,1.23-18.85,1.8c-1.02,0.21-2.03,0.48-2.99,0.89
		c-7.73,3.32-8.26,11.4-8.26,11.4c-3.4,12.7-3.4,55.2-3.4,55.2c0,36.7,3.1,45.3,3.1,45.3c2.2,10.5,16.9,9.7,16.9,9.7
		c14,0,13-10.7,13-10.7v-19.9c0-7.6,5.5-7.6,5.5-7.6c3.6,0,4.5,1.6,4.5,1.6s1.9,1.3,2.7,13.2c0,0,0.6,18,11.6,21.4
		c0,0,4.8,1.9,11.3,1.9C313.7,256.21,311.9,240.71,311.9,240.71z M275,176.11c0,15.1-9.8,14.6-9.8,14.6c-8.4,0-8-12.5-8-12.5
		c0-8.9,1.4-12.2,1.4-12.2c1.3-4.7,7.1-4.4,7.1-4.4C276,161.61,275,176.11,275,176.11z"/>
	<path class="st1" d="M360.9,201.31c0,11.6,6.6,11.3,6.6,11.3c5.3,0,4.7,4.4,4.7,4.4c0,7.6-9,7-9,7c-15.09,0-13.51-30.27-13.52-31.2
		c-0.02-6.1,0.63-33.4,14.22-33.4c0,0,6.3-0.6,8.9,9.8c0,0,1,7.8,14.1,7.8c0,0,17.1,1.6,17.1-15c0,0,3.1-33.3-40-33.3
		c-50,0-47.8,63.3-47.8,63.3s-0.7,27.5,9.7,46.2c4.9,8.8,13.6,14.6,23.4,16.6c4.3,0.9,9.8,1.5,16.5,1.5c20.2,0,29-10.1,29-10.1
		s8.7-8.6,8.7-21.4c0,0,2.9-29.7-6.6-35.5c0,0-2.1-3.1-14.4-3.1c0,0-11.59-0.4-17.53,3.04c-1.72,0.99-2.92,2.67-3.33,4.61
		C361.31,195.35,360.9,197.85,360.9,201.31z"/>
	<path class="st1" d="M477.9,144.21c0,9-3.7,11.5-3.7,11.5c-2.8,3.4-14.1,3.1-14.1,3.1h-8.4c-3.59,0-6.5,2.91-6.5,6.5v5.3
		c0,3.09,2.51,5.6,5.6,5.6h13.9c0,0,9-0.8,9,10.9c0,0,1.4,13.3-2.4,15.4c0,0-1.8,2.6-6.7,2.6h-13.1c-3.79,0-6.9,3.1-6.9,6.9v2.8
		c0,2.9,1.8,6.9,5.3,6.9h17.2c0,0,7.9-0.6,7.9,10.5v5.7c0,0,0.6,7.2-5.5,10.9c0,0-4.6,3.2-24.9,3.2c0,0-18.3,0.2-22.6-4
		c0,0-9.9-5-9.2-55.3c0,0-0.5-49.2,9.6-57.5c0,0,5.3-6.4,26.7-6.4c0,0,20.2-0.8,24.5,4.6C473.7,133.31,477.9,135.81,477.9,144.21z"
		/>
	<path class="st1" d="M567,179.01c4.7-8.8,3.9-19.9-0.2-29c-7.5-16.5-25-21.7-41.9-21.8c0,0-0.8,0-2.3,0c-0.4,0-0.9,0-1.4,0
		c-0.3,0-0.7,0-1.1,0c-8,0.3-22.5,0.8-25.8,6.5c0,0-8.4,11-8.4,56.2c0,0-0.6,28,2,46.8c0,0,0.6,12.4,16.2,12.4
		c14.87,0,15.43-8.35,15.34-10.43c-0.03-0.64-0.84-20.17-0.84-20.17c0-9.84,7.63-11.88,10.2-6.1c2.4,5.4,1.9,11.8,1.9,17.6
		c0,6.3,1.1,11,5.8,15.5c4.2,4.1,9.1,4.9,14.8,4.9c5.8,0,11.6-1,16.2-4.8c4.1-3.4,7-8.7,6.4-14.2c-0.7-5.9-5-8.1-9.4-11.2
		c0,0-7.6-5.2-12.6-15.7c-2.2-4.7-1-10.3,3.1-13.4C559,189.21,564.1,184.51,567,179.01z M526.5,186.31c-7.8,0-7.2-8.7-7.2-8.7v-9.5
		c0-11,6.6-10.7,6.6-10.7s11.6-0.8,11.6,13.7C537.5,187.71,526.5,186.31,526.5,186.31z"/>
	<path class="st1" d="M405,353.21c0,0-0.13-60.89-5.89-79.01c-0.87-2.75-2.77-5.04-5.33-6.38c-4.24-2.21-12.46-4.44-26.88-1.41
		c0,0-17.6,5.2-13.1,21.5c0,0,3.3,15.9,4.2,32.3c0.3,5.1-6.6,7.1-9,2.5c-5.66-11.03-15.22-27.14-31-48.79
		c-1.74-2.39-4.68-6.27-11.32-8.3c-3.06-0.94-6.96-1.22-11.78-1.26c-1.95,0-17.67-0.65-22.46,7.43c-1.7,2.88-8.72,16.81-9.13,88.52
		c0,2.8,0,5.6,0,8.6c0,8.1,0.2,16.1,0.7,24.2c0.8,14.6,9.9,25.9,25.2,26c6.1,0,13.9-0.4,18.7-4.5c4.7-4,5.3-10.5,5.2-16.3
		c-0.2-9.3-0.8-18.7-1.2-28c-0.3-6.6-0.5-13.3,0.3-19.9c0.4-3.2,4.6-4.1,6.2-1.3c0,0,13.18,23.27,20.3,36.4
		c6.4,11.8,18.3,32.1,39.4,32.1c0,0,19.9,0.9,22.9-15C401.1,402.61,404.8,390.41,405,353.21z"/>
	<path class="st1" d="M116.5,378.01c-2-17.4-16.8-15.8-16.8-15.8s-14.3-0.1-14.3,13.4c0,0-0.6,6.3,0.7,17.5c0,0,0.2,0.7,0.2,10.2
		c0,20.1-22.6,18.7-22.6,18.7c-18.5,0-22.1-9.1-22.1-9.1c-7.3-13-8.5-81.8-8.5-81.8c0-51.6,7.1-57.5,7.1-57.5
		c5.6-10.7,21.8-9,21.8-9c10.7,0,14.5,4.6,14.5,4.6c9,5.5,9,33.5,9,33.5v10.9c0,12.4,10.5,10.7,10.5,10.7
		c15.71,0,26.35-35.04,28.66-40.2l0.54-1.2c8.9-22.9,32.7-20.5,32.7-20.5s26.6-0.7,26.6,16.8c0,0,1,8.6-7.6,17.1
		c-2.9,3.6-6.6,6.4-9.8,9.6c-3.9,3.9-7.4,8.1-10.7,12.5c-4.1,5.5-8.1,11.2-10.7,17.4c-2.1,5-2.1,10.7,0.1,15.6
		c4.7,10.6,13.4,19.5,23.2,26.9c6,4.6,13.7,8.4,15.7,16.3c2,7.6-0.1,15.6-6.5,20.4c0,0-3.2,5.5-25.8,5.5h-3.6
		c0,0-28.2,1.4-30.6-27.2C118.3,393.51,117.4,386.01,116.5,378.01z"/>
	<path class="st1" d="M219.5,265.81c0,0,13.1-0.1,15.8,3.9c0,0,4.6,1.8,6,32.1c0,0,8.73,102.95-4.7,112.6c0,0-4.1,5-12.4,5
		c0,0-14.7,1.1-18.3-4.9c0,0-6.6-5.7-7-30.3c0,0-4.4-78.9,1.7-108.5c0,0,0.8-4.28,4.51-6.78c0.67-0.45,1.41-0.8,2.16-1.1
		C209.26,267.03,213.29,265.81,219.5,265.81z"/>
	<path class="st1" d="M560.6,305.71c0,0,17.4-19.7,1.4-32.1c0,0-17.9-15.6-57.3-15.6c0,0-86-3.7-86,82.5c0,0-3,79.8,87.6,79.8
		c0,0,69,1.1,69-56.9c0,0,1.8-30.6-23.1-39.4c-3.2-1.1-6.5-1.6-9.8-1.8c-8.4-0.5-26.7-0.5-37.9,6.5c0,0-6.2,3.4-6.2,21.1
		c0,0-0.7,13.1,9.9,13.8c0,0,13.3-0.5,13.3,6.4c0,0,1.6,8.5-18.8,8.5c0,0-34.6,2.8-34.6-40.8c0-39,35.5-39.2,35.5-39.2
		s11.02-0.14,22.82,3.98c3.07,1.07,6.01,2.49,8.86,4.05C539.65,308.93,554.82,315.74,560.6,305.71z"/>
</g>
</svg>
